<?xml version="1.0" encoding="UTF-8" standalone="no"?>
<svg
   xmlns:dc="http://purl.org/dc/elements/1.1/"
   xmlns:cc="http://creativecommons.org/ns#"
   xmlns:rdf="http://www.w3.org/1999/02/22-rdf-syntax-ns#"
   xmlns:svg="http://www.w3.org/2000/svg"
   xmlns="http://www.w3.org/2000/svg"
   xmlns:sodipodi="http://sodipodi.sourceforge.net/DTD/sodipodi-0.dtd"
   xmlns:inkscape="http://www.inkscape.org/namespaces/inkscape"
   version="1.1"
   width="24"
   height="24"
   viewBox="0 0 24 24"
   id="svg3336"
   inkscape:version="0.91 r13725"
   sodipodi:docname="logo.svg"
   inkscape:export-filename="C:\Users\nigel\Downloads\ic\logo.png"
   inkscape:export-xdpi="1875"
   inkscape:export-ydpi="1875">
  <metadata
     id="metadata3344">
    <rdf:RDF>
      <cc:Work
         rdf:about="">
        <dc:format>image/svg+xml</dc:format>
        <dc:type
           rdf:resource="http://purl.org/dc/dcmitype/StillImage" />
        <dc:title />
      </cc:Work>
    </rdf:RDF>
  </metadata>
  <defs
     id="defs3342" />
  <sodipodi:namedview
     pagecolor="#202020"
     bordercolor="#666666"
     borderopacity="1"
     objecttolerance="10"
     gridtolerance="10"
     guidetolerance="10"
     inkscape:pageopacity="1"
     inkscape:pageshadow="2"
     inkscape:window-width="1858"
     inkscape:window-height="1177"
     id="namedview3340"
     showgrid="false"
     inkscape:zoom="8.8333333"
     inkscape:cx="9.9819371"
     inkscape:cy="19.849872"
     inkscape:window-x="54"
     inkscape:window-y="-8"
     inkscape:window-maximized="1"
     inkscape:current-layer="svg3336"
     units="mm"
     showborder="false" />
  <path
     d="m 6.686047,5.5069601 -2.1719354,0 10.1809484,9.4744359 1.131218,-0.989553 m 5.610834,6.379452 -0.95022,0.884282 c -0.441176,0.410557 -1.153842,0.410557 -1.595018,0 l -3.529395,-3.28447 -3.03166,2.800221 -1.595017,-1.484329 1.606329,-1.494855 -10.090452,-9.3902183 0,-5.0003958 5.3732785,0 10.0904525,9.3902201 1.606328,-1.494858 1.595015,1.484328 -3.020349,2.810751 3.529398,3.284469 c 0.452484,0.421087 0.452484,1.084296 0.01135,1.494855 z"
     id="path3338"
     style="fill:#808080"
     inkscape:connector-curvature="0" />
  <g
     transform="scale(1.0659056,0.93816938)"
     style="font-style:normal;font-weight:normal;font-size:7.00634384px;line-height:125%;font-family:sans-serif;letter-spacing:0px;word-spacing:0px;fill:#000000;fill-opacity:1;stroke:none;stroke-width:1px;stroke-linecap:butt;stroke-linejoin:miter;stroke-opacity:1"
     id="text3350">
    <path
       d="m 6.0320296,22.88882 q -0.6089498,0.218948 -1.4060582,0.218948 -0.7834242,0 -1.3513212,-0.297633 -0.567897,-0.301053 -0.8689509,-0.851845 -0.2976327,-0.554213 -0.2976327,-1.276058 0,-0.776582 0.3352645,-1.382111 0.3352645,-0.605528 0.9476353,-0.933951 0.6123709,-0.331843 1.4094794,-0.331843 0.6363183,0 1.2315838,0.153948 l 0,1.365005 Q 5.8267657,19.430122 5.5428172,19.361701 5.2588687,19.293279 4.968078,19.293279 q -0.6021077,0 -0.9510564,0.345528 -0.3455277,0.345528 -0.3455277,0.937372 0,0.588424 0.3455277,0.93053 0.3489487,0.338686 0.93053,0.338686 0.5371074,0 1.084478,-0.273686 l 0,1.317111 z"
       style="font-style:normal;font-variant:normal;font-weight:900;font-stretch:normal;font-family:'Segoe UI';-inkscape-font-specification:'Segoe UI Heavy';fill:#ffffff"
       id="path3339" />
    <path
       d="m 11.29363,23.022242 0,-2.688959 q 0,-0.379738 0.02395,-0.83474 l 0.01026,-0.22579 -0.04105,0 q -0.109475,0.57816 -0.167633,0.800529 l -0.721845,2.94896 -1.3889526,0 -0.7560557,-2.914749 q -0.03079,-0.109474 -0.1607901,-0.83474 l -0.041053,0 q 0.047895,1.149478 0.047895,1.436848 l 0,2.312641 -1.2965841,0 0,-4.90581 2.2134299,0 0.6739501,2.665011 q 0.023947,0.08211 0.061579,0.335265 0.041053,0.249737 0.051316,0.38658 l 0.020526,0 q 0.037632,-0.311317 0.1197373,-0.735529 l 0.6294765,-2.651327 2.179219,0 0,4.90581 -1.457374,0 z"
       style="font-style:normal;font-variant:normal;font-weight:900;font-stretch:normal;font-family:'Segoe UI';-inkscape-font-specification:'Segoe UI Heavy';fill:#ffffff"
       id="path3341" />
  </g>
</svg>
